<?xml version="1.0" standalone="no"?>
<!DOCTYPE svg PUBLIC "-//W3C//DTD SVG 20010904//EN"
 "http://www.w3.org/TR/2001/REC-SVG-20010904/DTD/svg10.dtd">
<svg version="1.0" xmlns="http://www.w3.org/2000/svg"
 width="513.000000pt" height="513.000000pt" viewBox="0 0 513.000000 513.000000"
 preserveAspectRatio="xMidYMid meet">
<metadata>
Created by potrace 1.14, written by Peter Selinger 2001-2017
</metadata>
<g transform="translate(0.000000,513.000000) scale(0.100000,-0.100000)"
fill="#000000" stroke="none">
<path d="M2385 4824 c-468 -49 -832 -189 -1183 -453 -281 -212 -505 -484 -663
-806 -83 -169 -120 -269 -164 -440 -52 -202 -69 -340 -69 -570 0 -373 68 -670
229 -1000 215 -441 555 -792 986 -1018 161 -85 448 -191 466 -173 13 13 15
176 4 291 -16 158 -50 314 -105 480 -62 186 -113 299 -291 650 -102 201 -162
333 -183 400 -115 369 -83 703 99 1020 76 132 149 225 284 361 187 188 375
330 639 480 154 87 428 214 463 214 31 0 103 -18 103 -26 0 -15 -41 -82 -62
-100 -12 -12 -79 -59 -148 -105 -232 -156 -407 -306 -536 -462 -284 -339 -355
-612 -241 -926 63 -176 224 -364 375 -438 75 -38 77 -38 196 -38 103 0 130 4
179 24 190 76 406 292 522 521 103 206 138 360 139 615 0 158 -4 203 -32 374
-32 186 -33 220 -11 278 7 19 11 20 48 11 54 -14 77 -39 187 -203 242 -364
355 -703 354 -1065 0 -465 -141 -788 -521 -1199 -270 -292 -463 -524 -541
-653 -100 -163 -115 -335 -42 -478 45 -89 35 -86 160 -60 475 97 943 377 1256
750 584 697 705 1669 308 2477 -226 462 -577 814 -1035 1039 -223 109 -419
171 -660 209 -97 15 -429 27 -510 19z"/>
</g>
</svg>
