<svg data-name="symbols" xmlns="http://www.w3.org/2000/svg" style="display: none;">
    <symbol id="pyrofoniks-logo">
        <g data-name="Layer 1"><path class="path" d="M954.94 361.91c-193.84 0-387.68-.04-581.52.16-6.92 0-10.89-1.55-13.55-8.29-5.03-12.76-9.59-25.51-10.57-39.35-1.4-19.83 3.76-37.28 18.01-51.58 16.42-16.48 17.14-35.84 10.39-56.53-1.13-3.47-2.93-6.72-4.09-10.18-.46-1.36-.52-3.99.14-4.33 1.3-.68 3.66-.84 4.82-.06 25.15 16.76 36.68 43.33 22.03 73.06-2.13 4.33-4.6 8.5-6.7 12.85-5.76 11.94-2 26.19 8.67 33.26 11.61 7.69 26.91 6.52 34.44-4.69 4.92-7.31 7.67-16.66 9.31-25.48 4.99-26.84-1.84-51.91-13.82-75.8-7.01-13.99-15.03-27.5-21.49-41.72-9.11-20.07-14.8-41.11-12.45-63.5 2.9-27.69 17.13-47.78 41.75-60.51 1.52-.78 3.83-.03 5.78.01-.5 1.91-.43 4.29-1.58 5.65C432.4 59.19 423.77 75.06 422 94.05c-1.3 13.92 2 26.81 9.54 38.55 4.54 7.07 11.11 11.4 19.41 12.88 15.49 2.77 26.77-10.25 21.94-26.49-2.32-7.79-6.78-15.12-11.21-22.06-5.25-8.21-10.16-16.37-11.95-26.12-4.09-22.33 6.28-46.09 25.65-58.88 8.76-5.78 18.25-9.62 28.55-11.34 1.72-.29 3.69.96 5.55 1.49-.85 1.61-1.37 3.56-2.61 4.77-7.38 7.15-15.91 13.35-22.2 21.32-12.82 16.23-11.06 32.98 3.21 48.15 9.8 10.41 20.31 20.37 28.69 31.85 22.74 31.18 24.34 64.26 5.67 98.07-7.26 13.15-14.61 26.23-18.21 40.94-3.3 13.46-4.62 27 1.37 40.16 6.1 13.4 22.69 23.33 37.27 22.49 14.23-.81 24.9-12.1 26.78-28.27 2.06-17.66-2.47-34.07-9.66-49.89-3.51-7.72-7.68-15.14-11.56-22.69-13.28-25.84-9.55-50.61 10.66-71.58 14.26-14.8 31.6-24.86 50.35-32.66 1.65-.69 4.08.51 6.14.83-1.1 1.79-1.77 4.27-3.36 5.27-13.09 8.18-25.32 17.31-34.57 29.88-7.42 10.08-11.55 21.1-7.81 33.72 2.54 8.56 7.7 15.53 14.92 20.73 7.95 5.72 18.56 4.87 27.82-2.42 14.88-11.7 21.76-27.66 22.1-46.15.15-8.35-2.16-16.73-3.11-25.12-.19-1.68.72-3.48 1.12-5.22 1.7.67 4.04.85 5 2.09 15.83 20.57 25.19 43.15 20.16 69.7-2.95 15.57-11.45 28.09-22.29 39.41-8.13 8.5-16.01 17.38-22.96 26.85-5.4 7.35-7.67 16.39-2.73 24.97 5.14 8.92 14.2 10.87 23.82 10.7 9.55-.18 17.9-3.66 25.06-9.83 8.6-7.4 9.36-17.15 7.65-27.49-1.92-11.66-4.21-23.27-5.73-34.98-1.17-9.03.46-17.91 3.46-26.54 6.58-18.87 21.54-27.15 39.63-31.22 12.18-2.74 24.56-4.57 36.7-7.45 15.06-3.57 28.11-10.45 35.66-24.94.84-1.62 1.28-3.52 2.37-4.93 1.1-1.41 2.78-2.38 4.2-3.53.95 1.74 2.97 3.68 2.68 5.18-1.36 6.99-2.52 14.21-5.27 20.7-8.83 20.84-25.4 34.15-45.01 44.23-6.95 3.57-14.14 6.83-20.58 11.19-9.07 6.14-14.87 14.67-12.72 26.28 2.17 11.67 10.42 18.15 20.98 22.09 11.87 4.43 23.82 3.45 35.12-1.37 19.64-8.38 37.55-19.48 50.75-36.87 11.88-15.65 14.95-33.16 10.42-52-5.72-23.82-19.71-43.02-34.77-61.68-6.02-7.46-12.16-15.26-16.08-23.89-7.31-16.12-4.03-32.01 6.54-45.63 6.45-8.31 14.84-15.15 22.63-22.36 1.14-1.06 3.81-.47 5.77-.64-.37 1.93-.27 4.13-1.2 5.74-4.31 7.47-9.69 14.41-13.22 22.21-7.32 16.17-3.3 29.98 10.98 40.48 14.75 10.84 30.26 20.74 44.35 32.36 18.95 15.63 32.39 35.14 36.79 60.07 4.23 23.95-2.25 44.66-18.61 62.13-11.15 11.91-23.34 22.83-34.74 34.51-7.18 7.35-12.97 15.72-14.01 26.41-1.21 12.41 4.5 21.29 16.56 24.35 22.51 5.71 41.93-1.62 58.55-16.39 20.37-18.1 25.07-41.85 20.59-67.56-2.16-12.39-6.58-24.38-10.03-36.54-5.83-20.56-9.26-41.37-5.24-62.68 4.91-26.04 18.96-45.12 43.94-55.22 1.99-.81 4.7.16 7.07.31-1.11 1.92-1.78 4.38-3.39 5.69-13.3 10.74-25.05 22.6-29.3 39.91-4.55 18.53 2.01 34.21 14.77 46.85 12.16 12.04 27.77 13.65 43.84 8.99 11.88-3.45 18.27-13.12 23.27-23.41 10.38-21.39 6.21-42.28-11.6-60.21-4.44-4.48-9.56-8.28-14.12-12.65-1.32-1.26-1.8-3.39-2.66-5.13 2.06-.27 4.43-1.36 6.12-.7 25.3 9.84 39.62 28.72 44.83 55.03 4.82 24.37-.09 47.74-7.48 70.76-4.96 15.45-9.68 30.87-9.18 47.31 1.11 36.87 28.42 65.36 65.3 67.46 6.42.37 13.34-1.15 19.44-3.4 10.87-4 15.17-15.83 11.37-28.55-3.22-10.79-10.7-18.63-18.39-26.33-11.17-11.19-23.05-21.79-33.22-33.84-18.72-22.17-19.88-47.47-9.98-73.8 6.61-17.6 18-31.99 32.44-43.63 12.81-10.33 26.33-19.82 39.95-29.07 19.45-13.2 23.8-29.11 12.42-49.75-3.2-5.8-7.52-10.97-11.07-16.59-.81-1.29-.56-3.25-.79-4.9 1.66-.1 3.83-.93 4.89-.19 13.68 9.65 25.59 20.93 31.23 37.27 6.32 18.31.24 33.84-11.05 48.28-9.12 11.66-18.38 23.28-26.61 35.57-8.58 12.83-14.31 27.07-15.89 42.67-1.8 17.77 3.48 33.46 15.32 46.51 15.75 17.36 34.76 30.24 57.81 35.62 15.14 3.54 29.25.24 40.1-11.86 8.14-9.07 8.8-21.56.54-30.47-5.29-5.7-12.03-10.62-19.02-14.08-16.73-8.29-32.71-17.32-44.42-32.33-8.37-10.73-14.03-22.65-14.74-36.45-.1-1.94 1.44-3.96 2.22-5.94 1.6 1.41 3.95 2.52 4.68 4.29 5.95 14.36 16.94 23.16 31.38 27.12 14.1 3.87 28.62 6.14 42.9 9.37 18.29 4.14 33.29 12.51 39.91 31.58 3.88 11.17 4.19 22.55 2.5 34.04-1.33 9.05-3.34 18.01-4.73 27.05-3.18 20.62 7.98 35.15 28.97 37.06 5.46.5 11.42-.18 16.62-1.91 11.73-3.89 16.06-14.53 11.66-26.15-3.68-9.73-10.13-17.47-17.07-24.98-7.78-8.42-16.42-16.37-22.55-25.9-14.35-22.31-13.59-46.13-2.91-69.71 3.54-7.81 8.69-14.93 13.45-22.13.94-1.42 3.46-1.79 5.25-2.64.37 1.92 1.49 4.06 1 5.73-5.67 19.34-4.24 37.88 5.79 55.52 4.27 7.51 9.91 13.77 17.59 18 10.39 5.72 20.38 4.16 28.56-4.48 14.86-15.7 15.2-34.07 1.08-51.83-8.84-11.11-19.83-19.66-31.73-27.17-.98-.62-2.29-.99-2.92-1.86-.96-1.32-1.45-2.97-2.15-4.49 1.74-.46 3.84-1.77 5.17-1.22 6.31 2.59 12.57 5.38 18.54 8.66 16.35 8.98 31.21 19.79 41.63 35.75 13.24 20.28 12.24 40.88 1.09 61.48-8.03 14.83-16.25 29.63-19.08 46.43-1.42 8.43-1.97 17.34-.91 25.78 2.82 22.5 20.1 32.39 41.41 24.58 18.02-6.6 27.68-22.72 26.16-43.64-1.39-19.27-8.94-36.39-18.5-52.8-9.3-15.96-15.45-32.79-15-51.59.53-22.17 9.52-41.03 23.22-57.78 6.52-7.97 14.04-15.13 21.3-22.46 6.19-6.25 11.59-12.92 13.53-21.74 2.45-11.15-1.09-21.1-8.06-29.31-6.3-7.41-14.14-13.49-21.16-20.32-1.48-1.44-3.56-3.84-3.21-5.27.81-3.31 3.8-1.99 6.26-1.49 20.27 4.14 36.78 14 46.86 32.48 10.49 19.23 9.91 38.54-1.48 57.47-5.21 8.66-10.77 17.23-14.77 26.45-4.26 9.83-1.5 19.29 5.28 24.5 7.29 5.6 17.97 5.62 26.67-.24 10.9-7.34 15.32-18.63 17.5-30.83 4.44-24.8-5.32-45.28-20.3-64.03-.21-.26-.55-.46-.65-.75-.76-2.14-1.48-4.3-2.21-6.46 2.22.1 4.79-.49 6.61.41 27.21 13.5 43.09 42.01 41.32 73.01-1.52 26.48-11.21 50.22-23.97 72.91-10.57 18.79-20.42 37.78-24.1 59.37-3.21 18.83-1.89 37.12 5.25 54.94 4.67 11.67 16.68 17.92 29.25 14.99 12.73-2.97 22.13-14.89 20.21-27.05-.93-5.92-3.37-11.83-6.19-17.18-6.17-11.73-10.77-23.71-9.05-37.22 2.38-18.77 13.37-31.84 28.54-41.92 1.04-.69 3.63-.62 4.33.16.8.88.73 3.09.28 4.48-2.13 6.64-5.11 13.06-6.69 19.81-3.86 16.58-1.29 32.19 11.01 44.55 22.92 23.05 24.12 49.84 14.89 78.71-1.82 5.69-4.57 11.08-6.61 16.71-1.66 4.56-4.46 6.07-9.41 6.06-131.67-.14-263.34-.11-395.01-.11H954.9zM92.02 700.9v-23.49h1626.79v23.49H92.02zM1790.55 670.28c-7.99 10.92-14.9 22.38-15.42 36.48-.34 9.23 3.83 16.69 10.29 23 18.3 17.88 40.52 22.73 65.03 19.1 23.19-3.44 44.2-12.34 62.37-27.3 19.99-16.46 26.64-46.55 16.78-70.59-8.17-19.92-22.61-34.2-39.06-47.07-30.97-24.21-62.25-48.04-92.64-72.96-21.57-17.69-33.7-40.61-31.22-69.52 1.01-11.8 6.17-21.99 13.09-31.41.74-1 1.49-2.82 1.07-3.72-4.35-9.36-3.74-19.26-2.99-29.02.6-7.76 2.34-15.44 3.66-23.15.18-1.05.85-2.02 1.98-4.62 1.36 3.09 2.33 4.81 2.89 6.65 3.17 10.42 8.08 19.71 16.87 26.52 3.92 3.04 7.72 4.41 13.18 2.63 21.94-7.13 43.84-7.01 65.46 1.94 1.91.79 5.03.1 6.99-.97 10.59-5.8 16.34-15.79 21.76-26.02.96-1.82 2.09-3.56 3.88-6.59.96 2.63 1.73 3.88 1.83 5.18 1.06 13.15 1.42 26.29-1.46 39.3-.25 1.14-.22 2.51-.87 3.36-4.87 6.45-1.24 11.29 1.93 17.19 4.36 8.11 7.43 17.01 10.2 25.84 1.89 6.03-1.57 11.28-7.13 13.02-7.03 2.2-12.27-1.38-13.8-8.64-3.82-18.11-13.38-32.25-30.37-40.34-10.99-5.23-22.08-4.21-32.46 2.21-7.94 4.91-11.94 14.07-9.12 23.96 2.11 7.4 5.16 14.93 9.52 21.2 12.22 17.58 27.21 32.54 44.16 45.87 33.91 26.67 62.08 58.22 75.83 100.12 13.13 40 10.2 78.65-13.98 114.14-11.73 17.22-28.05 29.79-46.1 39.9-26.25 14.7-54.56 20.97-84.59 18.94-24.16-1.63-46.09-8.93-61.25-28.96-18.93-25.01-21.09-54.05-1.87-82.72 4.95-7.39 11.25-13.88 17.09-20.99-.8 0-2.02-.19-3.16.03-4.08.8-8.1 2-12.21 2.48-1.77.21-3.7-.99-5.56-1.54.95-1.54 1.56-3.61 2.93-4.52 3.73-2.48 7.74-4.58 11.73-6.64 13.47-6.93 26.92-13.89 40.51-20.59 3.85-1.9 8.05-3.26 12.23-4.26 5.29-1.26 8.08 1.47 7.19 6.88-.48 2.92-1.23 5.98-2.64 8.55-7.13 12.97-14.48 25.82-21.84 38.66-.98 1.71-2.24 3.43-3.78 4.61-1.12.86-3.11 1.4-4.36.99-.87-.28-1.63-2.41-1.6-3.69.09-4.22.56-8.44.89-12.66-.63-.09-1.25-.18-1.88-.28zM1308.56 468.97c5.38-8.15 10.4-16.55 16.2-24.39 19.56-26.47 45.17-39.81 78.65-34.71 16.68 2.54 36.17 14.77 39.11 37.41 2.23 17.13 3.59 34.51 3.53 51.77-.15 44.81-1.24 89.62-2.11 134.43-.18 9.22-1.98 11.46-11.16 11.71-13.96.38-28.01.58-41.89-.65-15.58-1.39-20.26-6.84-21.07-23.09-.61-12.28.12-24.63.21-36.95.24-31.81.6-63.63.54-95.44-.01-5.74-1.39-11.57-2.84-17.18-3.29-12.67-13.66-16.63-25.08-9.98-10.21 5.95-16.68 15.17-21.96 25.32-3.68 7.08-7 14.36-10.15 21.7-1.14 2.67-1.79 5.75-1.84 8.65-.51 29.99-.66 59.99-1.36 89.97-.22 9.27-1.53 18.54-2.84 27.74-.92 6.42-5.48 10-11.7 10.48a914.84 914.84 0 0 1-39.86 2.22c-6.22.21-9.14-2.85-9.48-9.12-.49-8.98-.83-17.97-.99-26.96-1.06-61.14-2.08-122.28-3-183.42-.09-6.1.08-12.3 1.1-18.29 1-5.87 4.25-8.21 10.16-8.37 10.31-.28 20.63-.34 30.94-.31 12.19.03 19.89 3.77 22.73 21.45 1.95 12.12 2.11 24.53 2.97 36.82.21 2.96.03 5.95.03 8.92.38.09.77.18 1.15.28zM306.23 571.98c-12.44.35-24.59 1.6-36.63.85-30.93-1.94-53.07-18.2-68.85-44.23-8.09-13.35-8.55-28.17-8.95-42.99-.56-20.83-.76-41.66-1.05-62.49-.03-2.15.4-4.3.52-6.46.29-5.42 3.41-8.7 8.51-8.62 17.61.27 35.26.42 52.8 1.86 9.57.79 12.02 4.03 13.11 13.49 1.03 8.9 1.26 17.93 1.27 26.91.02 22.82-.44 45.65-.36 68.47.02 5.1 1.12 10.28 2.34 15.27 3.04 12.37 16.11 20.05 31.11 18.56 2.97-.29 5.91-.84 9.48-1.36.29-3.91.81-7.84.85-11.77.4-37.67.75-75.33 1-113 .02-3.63-.39-7.34-1.18-10.89-.91-4.09.69-6.64 4.21-7.87 3.58-1.25 7.37-2.59 11.09-2.63 16.65-.18 33.31-.22 49.94.33 9.27.31 12.26 4.75 11.87 15.25-.62 16.65-1.24 33.31-1.91 49.96-.93 23.15-1.5 46.32-3.01 69.43-1.23 18.81-4.61 37.32-11.47 55.05-15.54 40.17-55.14 64.28-97.93 59.39-19.53-2.23-38.27-7.24-55.44-17.12-3.45-1.98-6.72-4.34-9.81-6.85-4.96-4.03-5.72-9.47-2.3-14.05 3.28-4.4 8.37-5.21 13.68-1.29 9.14 6.74 19.51 10.68 30.1 14.25 16.81 5.67 29.55 1.67 40.35-12.64 8.45-11.2 15.54-30.31 16.65-44.83zM538.65 548.23c15.39 26.38 30.61 52.57 45.97 78.69 3.5 5.95 3.11 11.9-1.56 15.03-4.89 3.27-10.88 1.98-14.51-4.07-10.87-18.14-21.28-36.55-32.04-54.76-6.09-10.31-12.47-20.46-18.85-30.6-.69-1.09-2.18-2.32-3.34-2.36-7.29-.21-14.59-.11-22.33-.11-.44 10.03-1.22 19.15-1.15 28.26.11 13.16 1.04 26.31 1.19 39.47.07 5.77-.72 11.58-1.46 17.32-.58 4.58-3.66 7-8.15 7.42-5.97.57-11.94 1.14-17.93 1.39-10.32.42-20.65.68-30.98.83-10.99.16-14.57-3.13-14.51-14.14.12-21 .83-42 .88-62.99.13-47.83.03-95.66-.03-143.48 0-5.95-1.44-12.34 4.28-16.58 2.68-1.99 5.92-4.1 9.08-4.4 27.54-2.62 55.16-5.34 82.8-2.09 21.25 2.5 42.23 6.64 60.14 19.56 24.54 17.7 34.68 52.94 23.19 80.93-5.56 13.53-15.61 23.43-27.58 31.5-9.32 6.29-19.26 11.23-30.21 14-.93.23-1.79.73-2.9 1.2zm-47.71-129.17c.68 37.36 1.35 74.39 2.02 111.57 10.25 0 20.25.6 30.15-.14 15.05-1.13 28.83-6.19 41.03-15.42 29.42-22.28 26.61-65.05-5.91-82.79-20.78-11.34-43.9-12.2-67.29-13.22z"/><path class="path" d="M1660.43 521.22c.89 25.97 1.97 51.94 2.56 77.92.2 8.79-.36 17.66-1.42 26.39-1.41 11.68-7.41 18.08-19.01 19.02-13.39 1.08-26.95 1.54-40.35.79-15.06-.85-15.8-2.85-15.26-17.89.75-20.98 1.14-41.98 1.41-62.98.42-32.67.87-65.33.79-98-.03-13.63-1-27.29-2.23-40.88-1.33-14.66 3.6-21.72 18.17-21.5 12.89.2 25.78 2.05 38.6 3.76 6.67.89 10.75 5.7 12.82 12.01 4.53 13.84 4.84 28.14 4.63 42.51-.11 7.47-.02 14.94-.02 23.5 6.08-5.36 12.16-9.94 17.29-15.41 16.62-17.73 32.9-35.78 49.3-53.71 1.57-1.72 3.02-3.57 4.67-5.2 3.71-3.66 9.48-4.08 13.16-1.08 3.88 3.16 4.69 9.22 1.5 13.54-2.57 3.48-5.54 6.66-8.25 10.04-19.02 23.72-39.68 45.85-63.22 65.18-.77.63-1.74 1.03-2.5 1.48 18.42 33.9 32.82 68.89 55.38 99.34 6.25 8.43 12.7 16.71 19 25.11 4 5.34 3.17 11.27-1.95 14.77-4.62 3.15-9.32 2.42-13.14-2.45-15.53-19.81-30.66-39.94-42.53-62.22-8.85-16.6-17.19-33.47-25.76-50.22-.72-1.41-1.46-2.81-2.19-4.21-.48.13-.96.27-1.45.4zM1096.24 641.9c-7.61-.71-17.26-.64-26.44-2.65-28.34-6.2-46.16-23.91-53.39-51.97-7.14-27.72-8.75-55.67-4.48-84.16 3.53-23.51 11.68-45.08 24.24-64.95 14.9-23.59 36.99-35.01 64.7-36.29 14.44-.67 28.47.21 42.21 5.45 22.83 8.71 39.62 24.21 51.63 44.99 14.76 25.54 18.68 53.48 16.51 82.48-1.54 20.66-6.43 40.58-16.81 58.57-17.64 30.58-44.4 46.9-79.83 48.49-5.48.25-10.99.03-18.35.03zm-21.16-98.25c1.55 12.02 2.12 24.29 4.97 35.99 2.4 9.86 6.32 19.78 11.64 28.38 5.98 9.67 16.34 14.79 27.83 13.47 29.24-3.35 49.91-19.42 62.01-45.9 13.48-29.5 14.8-60.18 5.93-91.22-5.81-20.33-16.71-37.07-35.22-48.5-22.18-13.69-39.42-6.76-51.44 9.03-5.93 7.79-10.57 17.02-13.83 26.29-8.2 23.3-10.17 47.75-11.88 72.44zM711.78 642.21c-9.91-1.04-20.04-1.13-29.7-3.31-27.55-6.22-44.91-23.67-51.98-50.9-7.09-27.31-9.23-54.85-5-83.09 3.52-23.53 11.3-45.17 23.55-65.23 15.18-24.86 37.91-36.53 66.87-37.9 18.11-.86 35.28 1.56 51.23 10.09 24.1 12.88 40.63 32.66 49.7 58.3 13.72 38.8 11.43 77.2-4.3 115-13.75 33.03-48.56 56.47-84.34 56.74-5.33.04-10.66 0-15.99 0-.02.1-.04.21-.05.31zm-22.14-98.11c0 3.5-.19 7.01.03 10.49 1.08 16.58 4.29 32.68 11.54 47.75 5.53 11.5 20.14 20.69 30.87 19.43 25.48-3 45.5-15.2 58.21-37.47 18.32-32.11 20.43-66.28 10.07-101.41-5.91-20.04-17-36.16-35.21-47.29-22.29-13.62-39.4-5.71-51.02 9.38-5.19 6.74-9.42 14.59-12.44 22.56-9.31 24.61-11.33 50.53-12.06 76.57zM65.99 577.58c.64 10.78 1.27 21.23 1.87 31.67.22 3.82.57 7.65.56 11.47-.06 13.85-4.84 20.47-18.39 23.23-12.76 2.6-25.8 3.29-38.74.69-9.78-1.97-12.14-6.03-11.04-15.96 1.1-9.92 1.92-19.91 2.11-29.88 1.2-59.99 2.18-119.99 3.23-179.98.12-6.99 1.91-9.85 8.52-11.7 5.26-1.48 10.75-3.03 16.13-3.04 20.3-.04 40.78-1.04 60.85 1.27 26.42 3.04 49.69 14.05 65.47 36.84 22.99 33.2 20.76 80.82-6.86 107.8-14.34 14-32.63 20.31-51.93 23.72-8.84 1.56-17.84 2.2-26.77 3.26-1.45.17-2.9.36-5.03.62zm.19-20c14.2-.48 28.39-1.34 41.84-5.95 27.76-9.52 43.79-26 44.71-54.7.76-23.57-6.61-44.07-26.65-58.27-17.71-12.55-38.15-15.62-59.9-16.16v135.08zM924.12 523.63h43.4c1.33 0 2.66-.23 3.99-.19 5.59.18 9.52 3.56 10.02 8.53.52 5.19-2.76 9.74-8.33 10.73-3.91.69-7.96.84-11.94.87-11.98.11-23.97.04-36.6.04-.33 5.88-.47 11.49-1 17.05-1.94 20.37-3.63 40.78-6.18 61.07-1.74 13.77-7.2 19.48-20.83 21.64-9.28 1.46-18.88 1.43-28.31 1.21-6.85-.17-10.29-4.11-10.56-10.36-1.64-37.6-3.59-75.19-4.68-112.81-.64-21.96-.24-43.97.49-65.93.25-7.69 2.35-15.46 4.55-22.9 4.37-14.76 14.95-22.49 30.04-23.68 9.28-.73 18.63-.75 27.94-.75 22.48 0 44.96.21 67.44.36 3.62.02 8.01-.84 9.77 3.19 1.34 3.09 1.97 7.04 1.34 10.3-.84 4.3-5.13 5.45-9.05 5.72-7.48.5-14.97.83-22.46.91-8.16.08-16.33-.08-24.48-.38-13.86-.51-19.31 5.05-18.55 18.71 1.3 23.28 2.38 46.58 3.57 69.87.12 2.29.29 4.58.44 6.82zM1484.15 520.56c-.49-30.21-1.1-64.37-1.58-98.53-.17-12.25 3.62-16.86 15.99-17.41 13.29-.59 26.64-.24 39.94.22 7.08.25 10.93 3.9 11.19 11 .6 15.8.87 31.64.63 47.45-.73 48.33-1.75 96.65-2.72 144.97-.14 6.99-.48 13.98-.98 20.95-.56 7.83-3.67 11.81-11.49 12.64-8.91.95-17.95 1.02-26.92.88-6.46-.1-12.98-.78-19.34-1.94-5.93-1.09-8.26-4.91-8.07-10.81 1.1-35.15 2.15-70.3 3.34-109.42zM1564.6 362.28c2.5-8.12 4.62-15.28 6.97-22.36.3-.91 1.75-1.62 2.82-2.03.87-.33 1.97-.08 2.97-.08h275.82v32.75h-23.51c-.23-2.6-.45-5.17-.72-8.27h-264.36zM109.31 361.98v13.51h-24.1v-37.68h5.66c82.27 0 164.55.04 246.82-.12 4.51 0 6.39 1.47 7.68 5.56 1.93 6.14 4.52 12.08 7.08 18.73H109.31z"/></g>
    </symbol>
</svg>