<svg xmlns="http://www.w3.org/2000/svg" xmlns:xlink="http://www.w3.org/1999/xlink" viewBox="0 0 2730.7 1116"><symbol id="big_logo"><defs><linearGradient id="c"><stop offset="0" stop-color="#ff8f00"/><stop offset="1" stop-color="#ff7043" stop-opacity="0"><animate id="b" attributeName="stop-opacity" begin="0;a.end" dur="3s" from="0" to=".4"/><animate id="a" attributeName="stop-opacity" begin="b.end" dur="3s" from=".4" to="0"/></stop></linearGradient><linearGradient xlink:href="#c" id="d" x1="1032.1" x2="1019.4" y1="5" y2="1626" gradientUnits="userSpaceOnUse"/><linearGradient xlink:href="#c" id="f" x1="-587.9" x2="-600.6" y1="-453.7" y2="1167.4" gradientUnits="userSpaceOnUse"/><linearGradient xlink:href="#c" id="h" x1="867.4" x2="854.7" y1="-454" y2="1167.1" gradientUnits="userSpaceOnUse"/><linearGradient xlink:href="#c" id="j" x1="21.7" x2="9.1" y1="-454" y2="1167" gradientUnits="userSpaceOnUse"/><linearGradient xlink:href="#c" id="l" x1="-813.9" x2="-826.6" y1="-145.7" y2="1475.4" gradientUnits="userSpaceOnUse"/><linearGradient xlink:href="#c" id="n" x1="-683.8" x2="-696.4" y1="-294.7" y2="1326.3" gradientUnits="userSpaceOnUse"/><linearGradient xlink:href="#c" id="p" x1="-507.5" x2="-520.1" y1="-295.4" y2="1325.6" gradientUnits="userSpaceOnUse"/><linearGradient xlink:href="#c" id="r" x1="-331.9" x2="-344.6" y1="-347" y2="1274" gradientUnits="userSpaceOnUse"/><linearGradient xlink:href="#c" id="t" x1="-98.4" x2="-111.1" y1="-272.3" y2="1348.7" gradientUnits="userSpaceOnUse"/><linearGradient xlink:href="#c" id="v" x1="52.6" x2="39.9" y1="-292.3" y2="1328.7" gradientUnits="userSpaceOnUse"/><linearGradient xlink:href="#c" id="x" x1="287" x2="274.4" y1="-271.8" y2="1349.2" gradientUnits="userSpaceOnUse"/><linearGradient xlink:href="#c" id="z" x1="485.7" x2="473.1" y1="-396.9" y2="1224.1" gradientUnits="userSpaceOnUse"/><linearGradient xlink:href="#c" id="B" x1="670.5" x2="657.8" y1="-244" y2="1377.1" gradientUnits="userSpaceOnUse"/><linearGradient xlink:href="#c" id="D" x1="910.5" x2="897.8" y1="-258.4" y2="1362.7" gradientUnits="userSpaceOnUse"/><clipPath id="k"><path d="M-1010 378h2048v-837h-2048z"/></clipPath><clipPath id="e"><path d="M0 837h2048V0H0z"/></clipPath><clipPath id="m"><path d="M-1846 686H202v-837h-2048z"/></clipPath><clipPath id="s"><path d="M-1364 485H684v-837h-2048z"/></clipPath><clipPath id="C"><path d="M-362 588h2048v-837H-362z"/></clipPath><clipPath id="A"><path d="M-546 435h2048v-837H-546z"/></clipPath><clipPath id="o"><path d="M-1716 537H332v-837h-2048z"/></clipPath><clipPath id="u"><path d="M-1130 560H918v-837h-2048z"/></clipPath><clipPath id="y"><path d="M-745 560h2048v-837H-745z"/></clipPath><clipPath id="E"><path d="M-122 574h2048v-837H-122z"/></clipPath><clipPath id="w"><path d="M-979 540h2048v-837H-979z"/></clipPath><clipPath id="q"><path d="M-1539 537H509v-837h-2048z"/></clipPath><clipPath id="g"><path d="M-1620 378H428v-837h-2048z"/></clipPath><clipPath id="i"><path d="M-165 378h2048v-837H-165z"/></clipPath></defs><path fill="url(#d)" d="M147 144h1627v-24H147z" clip-path="url(#e)" transform="matrix(1.3333 0 0 -1.3333 0 1116)"/><path fill="url(#f)" d="m0 0 7 22 3 2h279V-8h-24l-1 8z" clip-path="url(#g)" transform="matrix(1.3333 0 0 -1.3333 2160 504)"/><path fill="url(#h)" d="M0 0v-14h-24v38h252c5 0 7-1 8-5l7-19z" clip-path="url(#i)" transform="matrix(1.3333 0 0 -1.3333 220 504)"/><path fill="url(#j)" d="M0 0h-582c-6 0-10 1-13 8-5 13-10 26-11 39-1 20 4 38 18 52 17 17 18 36 11 57l-4 10v4h5c25-17 36-43 22-73l-7-13c-6-12-2-26 9-33 11-8 27-7 34 5 5 7 8 16 9 25 5 27-1 52-13 76l-22 42c-9 20-15 41-12 63 3 28 17 48 41 61h6l-1-6a88 88 0 0 1-23-49c-1-14 2-27 10-39 4-7 11-11 19-13 15-2 27 11 22 27-2 8-7 15-11 22-6 8-10 16-12 26-4 22 6 46 25 59 9 6 19 10 29 11 2 1 4-1 6-1l-3-5c-7-7-16-13-22-21-13-16-11-33 3-48l29-32c22-31 24-65 5-98-7-13-14-27-18-41-3-14-5-27 1-40 7-14 23-24 38-23 14 1 25 12 26 28 3 18-2 34-9 50l-12 23a58 58 0 0 0 11 72c14 14 32 24 50 32 2 1 4 0 6-1-1-1-1-4-3-5-13-8-25-17-35-30-7-10-11-21-7-34 2-8 7-15 15-20 8-6 18-5 27 2 15 12 22 28 23 46 0 9-3 17-4 25l2 6 5-2c15-21 25-44 20-70-3-16-12-28-23-40l-23-26c-5-8-7-17-2-25 5-9 14-11 24-11 9 0 17 4 25 10 8 7 9 17 7 27l-5 35c-2 9 0 18 3 27 7 19 22 27 40 31l36 7c15 4 28 11 36 25l2 5 5 4c0-2 3-4 2-5-1-7-2-15-5-21-9-21-25-34-45-44l-21-11c-9-7-15-15-12-27 2-11 10-18 21-22s23-3 35 2c19 8 37 19 50 36 12 16 15 34 11 52-6 24-20 43-35 62-6 8-12 15-16 24-7 16-4 32 7 46 6 8 14 15 22 22l6 1-1-6-13-22c-8-16-4-30 11-41l44-32c19-16 32-35 37-60 4-24-3-45-19-62l-35-35c-7-7-13-16-14-26-1-13 5-22 17-25 22-5 42 2 58 17 21 18 26 42 21 67-2 13-7 25-10 37-6 20-9 41-5 63 5 26 19 45 44 55 2 1 4 0 7-1l-4-5a75 75 0 0 1-29-40c-4-19 2-34 15-47 12-12 28-14 44-9 12 3 18 13 23 23 10 22 6 43-12 61l-14 12-2 5c2 1 4 2 6 1 25-10 39-29 45-55 4-24-1-48-8-71-5-15-10-31-9-47 1-37 28-65 65-67 7-1 14 1 20 3 10 4 15 16 11 29-3 10-11 18-18 26l-34 34a69 69 0 0 0-10 73c7 18 18 32 33 44l40 29c19 13 24 29 12 50l-11 17-1 4 5 1c14-10 26-21 31-38 7-18 1-33-11-48l-26-35c-9-13-15-28-16-43-2-18 3-34 15-47 16-17 35-30 58-35 15-4 29-1 40 12 8 9 9 21 1 30-6 6-12 11-19 14-17 8-33 17-45 32-8 11-14 23-14 37-1 2 1 4 2 6l4-4c6-15 17-24 32-28l43-9c18-4 33-12 40-32 3-11 4-22 2-34l-5-27c-3-20 8-35 29-37 6 0 12 0 17 2 12 4 16 15 12 26-4 10-10 18-17 25-8 9-17 17-23 26a70 70 0 0 0-3 70l14 22c0 2 3 2 5 3l1-6c-6-19-4-38 6-56 4-7 10-13 17-18 11-5 21-4 29 5 15 16 15 34 1 52-9 11-20 19-32 27l-3 2-2 4 5 2 19-9c16-9 31-20 41-36 14-20 13-41 1-61-8-15-16-30-19-47-1-8-2-17-1-26 3-22 21-32 42-24 18 6 28 23 26 43-1 20-9 37-18 53a90 90 0 0 0 8 110c6 8 14 15 21 22 6 6 12 13 14 22 2 11-1 21-8 29s-15 14-22 20l-3 6c1 3 4 2 6 1 21-4 37-14 47-32 11-19 10-39-1-58-5-8-11-17-15-26-4-10-1-19 5-25 8-5 18-5 27 1 11 7 15 18 17 30 5 25-5 46-20 64v1l-3 7 7-1c27-13 43-42 41-73-1-26-11-50-24-73-10-18-20-37-24-59-3-19-2-37 5-55 5-12 17-18 30-15 12 3 22 15 20 27-1 6-3 12-6 17-6 12-11 24-9 37 2 19 13 32 28 42h5v-4l-7-20c-4-17-1-32 11-45 23-23 24-49 15-78l-7-17c-1-5-4-6-9-6H0" clip-path="url(#k)" transform="matrix(1.3333 0 0 -1.3333 1347 504)"/><path fill="url(#l)" d="M0 0c-8-11-15-22-15-36-1-10 3-17 10-23 18-18 40-23 65-20 23 4 44 13 62 28 20 16 27 46 17 70-8 20-23 35-39 47L7 139a78 78 0 0 0-31 70c1 12 6 22 13 31 1 1 2 3 1 4-4 9-3 19-3 29l4 23 2 5 3-7c3-10 8-20 17-26 4-3 7-5 13-3 22 7 44 7 65-2 2-1 5 0 7 1 11 6 17 16 22 26l4 7 2-6c1-13 1-26-2-39v-3c-5-7-2-12 1-17 5-9 8-17 11-26 2-6-2-12-8-13-7-2-12 1-13 8-4 18-14 33-31 41-11 5-22 4-32-3-8-4-12-14-9-23 2-8 5-15 9-22 12-17 27-32 44-46 34-26 63-58 76-100 13-40 10-78-14-114a153 153 0 0 0-130-59c-25 2-47 9-62 29a67 67 0 0 0-2 83l18 21h-4l-12-2c-2-1-4 0-5 1 1 2 1 4 3 5l11 6 41 21 12 4c5 1 8-1 7-7l-2-8A2451 2451 0 0 0 7-16l-4-1-2 4L2 0H0" clip-path="url(#m)" transform="matrix(1.3333 0 0 -1.3333 2461 915)"/><path fill="url(#n)" d="m0 0 3-78-2-26c-1-12-7-18-19-19-13-1-27-2-40-1-15 1-16 3-15 18l1 63 1 98-3 41c-1 14 4 21 19 21 13 0 25-2 38-4 7-1 11-5 13-12 5-13 5-28 5-42V35l17 16 49 53 5 6c4 3 9 4 13 1s5-9 2-14l-9-10C59 63 39 41 15 22l-2-1C31-13 45-48 68-79l19-25c4-5 3-11-2-15-5-3-9-2-13 3-16 20-31 40-43 62L4-4 1 0H0" clip-path="url(#o)" transform="matrix(1.3333 0 0 -1.3333 2288 716)"/><path fill="url(#p)" d="m0 0-2 99c0 12 4 16 16 17h40c7-1 11-4 12-11V57L63-88l-1-21c0-7-3-11-11-12a221 221 0 0 0-46 1c-6 1-9 5-8 11L0 0" clip-path="url(#q)" transform="matrix(1.3333 0 0 -1.3333 2053 716)"/><path fill="url(#r)" d="M0 0c5 8 10 17 16 24 20 27 45 40 79 35 17-2 36-15 39-37 2-17 4-35 3-52l-2-135c0-9-2-11-11-11H82c-15 2-20 7-21 24v36l1 96c0 6-1 11-3 17-3 13-14 17-25 10C24 1 17-8 12-18A322 322 0 0 1 0-49l-1-90-3-27c-1-7-6-10-12-11l-40-2c-6 0-9 3-9 9l-1 27a80692 80692 0 0 0-2 202c1 6 4 8 10 8h31c12 0 20-3 23-21 2-12 2-25 3-37V0h1" clip-path="url(#s)" transform="matrix(1.3333 0 0 -1.3333 1819 647)"/><path fill="url(#t)" d="M0 0c2-12 2-24 5-36 2-10 6-20 12-28 6-10 16-15 27-14 30 4 50 20 62 46 14 30 15 60 6 91-5 21-16 37-35 49-22 13-39 7-51-9-6-8-11-17-14-27C4 49 2 25 0 0m21-98c-7 0-17 0-26 2-29 7-46 24-54 52-7 28-8 56-4 85 3 23 12 45 24 64 15 24 37 35 65 37 14 0 28 0 42-6 23-8 40-24 52-45 14-25 18-53 16-82-1-21-6-41-17-59a92 92 0 0 0-79-48H21" clip-path="url(#u)" transform="matrix(1.3333 0 0 -1.3333 1507 746)"/><path fill="url(#v)" d="M0 0h47c6 0 10-3 10-8 1-6-2-10-8-11l-12-1H1L0-37l-7-61c-1-14-7-20-20-22l-29-1c-7 0-10 4-10 10L-71 2v66l5 23c4 15 15 23 30 24h95c4 0 8 1 10-3 2-3 2-7 2-10-1-5-6-6-10-6a394 394 0 0 0-46-1C1 96-5 90-4 77L0 7V0" clip-path="url(#w)" transform="matrix(1.3333 0 0 -1.3333 1306 720)"/><path fill="url(#x)" d="M0 0v-10c1-17 4-33 12-48 5-12 20-21 30-20 26 3 46 16 59 38 18 32 20 66 10 101-6 20-17 36-35 48-23 13-40 5-52-10-5-7-9-14-12-22C3 52 1 26 0 0m22-98-30 3c-27 6-44 24-52 51a182 182 0 0 0 19 148c15 25 38 37 67 38 18 1 35-1 51-10 24-13 41-32 50-58 14-39 11-77-4-115a95 95 0 0 0-85-57H22" clip-path="url(#y)" transform="matrix(1.3333 0 0 -1.3333 993 747)"/><path fill="url(#z)" d="m0 0 2-112 30 1c15 1 29 6 41 15 30 22 27 65-6 83C47-2 23-1 0 0m48-129 46-79c3-6 3-12-2-15s-11-2-14 4l-32 55-19 31-4 2H1l-1-28 1-40-1-17c-1-5-4-7-9-7l-17-2-31-1c-11 0-15 3-15 14l1 63V-5c0 6-2 12 4 17 3 2 6 4 9 4 28 3 55 5 83 2 21-2 42-7 60-20a67 67 0 0 0-4-112c-9-6-19-11-30-14l-3-1" clip-path="url(#A)" transform="matrix(1.3333 0 0 -1.3333 728 580)"/><path fill="url(#B)" d="M0 0c-12 0-25-2-37-1-31 2-53 18-68 44-9 14-9 29-9 43l-1 63v6c0 6 3 9 9 9 17 0 35 0 52-2 10-1 12-4 13-13l2-27-1-69 3-15c3-12 16-20 31-19l9 2 1 11a29356 29356 0 0 1 0 124c-1 4 1 7 4 8l11 3h50c9-1 12-5 12-16l-2-50-3-69c-1-19-4-37-11-55a93 93 0 0 0-98-60c-20 3-38 8-56 18l-9 6c-5 4-6 10-3 14 4 5 9 6 14 2 9-7 19-11 30-14 17-6 30-2 40 12C-8-34-1-15 0 0" clip-path="url(#C)" transform="matrix(1.3333 0 0 -1.3333 482 784)"/><path fill="url(#D)" d="M0 0c14 0 28 1 42 6 28 9 44 26 45 55 0 23-7 44-27 58-18 12-38 16-60 16zm0-20 2-32v-11c0-14-5-21-18-23-13-3-26-4-39-1-10 2-12 6-11 16l2 30 3 180c1 7 2 10 9 11 5 2 11 4 16 4 20 0 41 1 61-2 26-3 50-14 65-37 23-33 21-80-6-107a95 95 0 0 0-52-24L5-19l-5-1" clip-path="url(#E)" transform="matrix(1.3333 0 0 -1.3333 162 765)"/></symbol></svg>